<?xml version="1.0" encoding="UTF-8" standalone="no"?>
<!-- Created with Inkscape (http://www.inkscape.org/) -->

<svg
   width="120"
   height="120"
   viewBox="0 0 120 120"
   version="1.1"
   id="svg1"
   inkscape:version="1.3.2 (091e20e, 2023-11-25, custom)"
   sodipodi:docname="Clock.svg"
   xmlns:inkscape="http://www.inkscape.org/namespaces/inkscape"
   xmlns:sodipodi="http://sodipodi.sourceforge.net/DTD/sodipodi-0.dtd"
   xmlns="http://www.w3.org/2000/svg"
   xmlns:svg="http://www.w3.org/2000/svg">
  <sodipodi:namedview
     id="namedview1"
     pagecolor="#ffffff"
     bordercolor="#000000"
     borderopacity="0.25"
     inkscape:showpageshadow="2"
     inkscape:pageopacity="0.0"
     inkscape:pagecheckerboard="0"
     inkscape:deskcolor="#d1d1d1"
     inkscape:document-units="px"
     inkscape:zoom="10.71856"
     inkscape:cx="48.653922"
     inkscape:cy="46.32152"
     inkscape:window-width="3840"
     inkscape:window-height="2054"
     inkscape:window-x="-11"
     inkscape:window-y="-11"
     inkscape:window-maximized="1"
     inkscape:current-layer="layer1" />
  <defs
     id="defs1" />
  <g
     inkscape:label="Layer 1"
     inkscape:groupmode="layer"
     id="layer1">
    <path
       style="color:#000000;fill:#000000;-inkscape-stroke:none"
       d="M 60,0 C 26.910328,2.3635525e-7 2.363553e-7,26.91033 0,60 -1.1817765e-6,93.089671 26.910327,120 60,120 93.089675,120 120,93.089673 120,60 120,26.910328 93.089674,-2.3635528e-6 60,0 Z m 0,8 c 28.766033,-2.1e-6 52,23.233969 52,52 0,28.766032 -23.233966,52 -52,52 C 31.233968,112 7.999999,88.76603 8,60 8.0000002,31.233971 31.233968,8.0000002 60,8 Z"
       id="path1" />
    <path
       id="rect2"
       style="fill:#000000;fill-opacity:1;stroke:none;stroke-width:7.95035;stroke-dasharray:none;stroke-opacity:1"
       d="M 56 20 L 56 59.923828 L 56 60 L 56.005859 60 A 4 4.0901594 0 0 0 58.003906 63.457031 L 58 63.464844 L 92.640625 83.464844 L 96.640625 76.535156 L 64 57.689453 L 64 20 L 56 20 z " />
  </g>
</svg>
